<svg width="176" height="176" viewBox="0 0 176 176" fill="none" xmlns="http://www.w3.org/2000/svg">
<circle cx="87.9964" cy="87.9985" r="64.8118" transform="rotate(-10.2441 87.9964 87.9985)" fill="#FEE40B"/>
<path d="M63.9232 126.44L57.9537 134.688L56.4595 133.607L61.5225 126.611L57.8897 123.982L58.7962 122.729L63.9232 126.44Z" fill="#0C0F15"/>
<path d="M47.134 117.791C47.9532 117.061 48.7916 116.59 49.649 116.377C50.5018 116.163 51.3176 116.182 52.0966 116.434C52.8733 116.683 53.5581 117.14 54.1512 117.806C54.7442 118.472 55.1208 119.206 55.2809 120.009C55.4365 120.811 55.3601 121.625 55.0518 122.45C54.7389 123.274 54.174 124.05 53.3573 124.778C52.5381 125.508 51.7021 125.979 50.8493 126.193C49.9919 126.406 49.1748 126.388 48.3981 126.139C47.6192 125.888 46.9332 125.429 46.3402 124.763C45.7472 124.097 45.3717 123.364 45.2137 122.564C45.0535 121.761 45.1299 120.948 45.4428 120.123C45.7511 119.298 46.3148 118.521 47.134 117.791ZM48.3674 119.176C47.7908 119.69 47.3849 120.213 47.1498 120.746C46.9101 121.28 46.8298 121.795 46.9091 122.292C46.9858 122.792 47.2083 123.249 47.5764 123.662C47.9446 124.075 48.3725 124.349 48.86 124.483C49.3452 124.619 49.8674 124.6 50.4268 124.425C50.9815 124.251 51.5472 123.907 52.1239 123.393C52.7006 122.88 53.1088 122.356 53.3485 121.823C53.5836 121.29 53.6627 120.773 53.586 120.273C53.5067 119.776 53.2831 119.32 52.9149 118.907C52.5468 118.494 52.1201 118.219 51.635 118.083C51.1474 117.949 50.6262 117.97 50.0715 118.144C49.5121 118.318 48.9441 118.662 48.3674 119.176Z" fill="#0C0F15"/>
<path d="M41.6906 108.293C42.6475 107.757 43.5676 107.476 44.4509 107.452C45.3296 107.427 46.1223 107.621 46.829 108.034C47.534 108.444 48.1045 109.038 48.5405 109.816C48.9765 110.594 49.1865 111.392 49.1704 112.21C49.1497 113.027 48.9002 113.805 48.4218 114.545C47.9389 115.283 47.2205 115.919 46.2664 116.454C45.3095 116.991 44.3917 117.272 43.5129 117.297C42.6297 117.321 41.8355 117.128 41.1305 116.718C40.4239 116.305 39.8526 115.709 39.4165 114.932C38.9805 114.154 38.7714 113.357 38.7891 112.542C38.8052 111.723 39.0547 110.945 39.5376 110.207C40.016 109.468 40.7337 108.83 41.6906 108.293ZM42.5975 109.911C41.9239 110.288 41.415 110.712 41.0707 111.183C40.722 111.652 40.5328 112.138 40.5033 112.641C40.4708 113.145 40.5899 113.639 40.8606 114.122C41.1313 114.605 41.4903 114.964 41.9378 115.199C42.3823 115.436 42.8965 115.53 43.4802 115.48C44.0595 115.429 44.6859 115.215 45.3595 114.837C46.0331 114.459 46.5443 114.036 46.8931 113.567C47.2373 113.096 47.4256 112.609 47.4581 112.104C47.4877 111.601 47.3671 111.108 47.0965 110.626C46.8258 110.143 46.4681 109.783 46.0236 109.546C45.5762 109.31 45.0628 109.218 44.4836 109.269C43.8998 109.319 43.2711 109.533 42.5975 109.911Z" fill="#0C0F15"/>
<path d="M45.8374 104.76L44.7384 105.093L36.0587 102.269L37.5818 107.294L36.1021 107.742L33.9156 100.529L35.0146 100.196L43.6928 103.015L42.1712 97.9955L43.6509 97.547L45.8374 104.76Z" fill="#0C0F15"/>
<path d="M43.2149 95.0928L33.0638 95.8829L32.7675 92.0763C32.7068 91.2964 32.7913 90.6316 33.0212 90.0818C33.2507 89.5287 33.5995 89.0977 34.0674 88.7886C34.5318 88.4766 35.0878 88.2953 35.7355 88.2449C36.3865 88.1942 36.9623 88.289 37.4631 88.5293C37.9603 88.7665 38.3602 89.1427 38.6629 89.6576C38.9623 90.1729 39.1424 90.8204 39.2031 91.6003L39.4141 94.3115L37.8875 94.4304L37.6957 91.9669C37.6602 91.5109 37.5684 91.1424 37.4202 90.8614C37.2687 90.5806 37.0653 90.3804 36.8099 90.2606C36.5511 90.1378 36.2415 90.0905 35.8813 90.1185C35.5212 90.1465 35.2194 90.2415 34.976 90.4034C34.7293 90.5655 34.5512 90.7972 34.4417 91.0982C34.3288 91.3996 34.2903 91.7799 34.326 92.2392L34.4572 93.9244L43.0718 93.2539L43.2149 95.0928ZM38.207 90.2068L42.6111 87.3357L42.7708 89.3878L38.3632 92.2142L38.207 90.2068Z" fill="#0C0F15"/>
<path d="M37.6624 64.5154L47.2071 68.0606L46.6358 69.5986L38.464 71.6811L38.4345 71.7603L44.9359 74.1752L44.2937 75.9042L34.749 72.359L35.3237 70.8117L43.4985 68.7356L43.5297 68.6517L37.0237 66.2351L37.6624 64.5154Z" fill="#0C0F15"/>
<path d="M48.5172 65.8672L39.9578 60.3531L43.4904 54.8697L44.7902 55.7071L42.2565 59.6399L44.5803 61.1369L46.8716 57.5802L48.1714 58.4176L45.8801 61.9742L49.5161 64.3167L48.5172 65.8672Z" fill="#0C0F15"/>
<path d="M47.2038 52.6668L46.1144 51.5696L51.8791 45.8459L52.9685 46.9431L50.7353 49.1604L56.8198 55.2885L55.5215 56.5775L49.437 50.4494L47.2038 52.6668Z" fill="#0C0F15"/>
<path d="M64.4169 37.6494L66.5383 36.8786L71.8988 42.7806L72.011 42.7399L72.3325 34.7733L74.4539 34.0026L77.931 43.5723L76.2675 44.1767L73.8787 37.6022L73.7899 37.6344L73.5237 45.1418L72.2808 45.5935L67.2524 39.9939L67.1636 40.0262L69.5575 46.6147L67.894 47.2191L64.4169 37.6494Z" fill="#0C0F15"/>
<path d="M81.6903 32.972L83.0288 43.0654L81.2004 43.3079L79.8619 33.2145L81.6903 32.972Z" fill="#0C0F15"/>
<path d="M97.2526 33.1937L96.39 43.339L94.7553 43.2L90.5625 35.8831L90.4782 35.8759L89.8907 42.7864L88.0529 42.6301L88.9154 32.4849L90.5601 32.6247L94.7475 39.9461L94.8367 39.9537L95.4246 33.0383L97.2526 33.1937Z" fill="#0C0F15"/>
<path d="M100.173 35.381L100.632 33.9046L108.39 36.3167L107.93 37.7932L104.925 36.8587L102.361 45.1049L100.614 44.5616L103.178 36.3155L100.173 35.381Z" fill="#0C0F15"/>
<path d="M126.518 52.7189L125.139 51.4723C125.304 51.2105 125.412 50.9445 125.464 50.6743C125.519 50.4017 125.523 50.1328 125.476 49.8677C125.43 49.6025 125.334 49.3481 125.188 49.1044C125.046 48.8604 124.86 48.634 124.629 48.4252C124.218 48.0541 123.761 47.8285 123.257 47.7484C122.755 47.6659 122.236 47.7414 121.699 47.9752C121.164 48.2064 120.639 48.6061 120.126 49.1741C119.604 49.752 119.254 50.3201 119.075 50.8782C118.902 51.4361 118.881 51.9581 119.014 52.4442C119.151 52.93 119.424 53.3574 119.832 53.7262C120.058 53.9307 120.297 54.0923 120.547 54.211C120.801 54.3295 121.061 54.4009 121.325 54.425C121.591 54.4514 121.856 54.4275 122.12 54.3531C122.386 54.2809 122.64 54.1531 122.882 53.9695L124.255 55.2235C123.879 55.5359 123.463 55.7717 123.006 55.9309C122.552 56.0924 122.078 56.1691 121.585 56.1613C121.094 56.1509 120.603 56.0467 120.112 55.8487C119.623 55.6482 119.154 55.3446 118.704 54.9379C118.04 54.338 117.586 53.6487 117.342 52.8703C117.099 52.0918 117.089 51.2768 117.314 50.4253C117.538 49.5739 118.017 48.7424 118.75 47.9309C119.486 47.1169 120.266 46.5576 121.091 46.253C121.917 45.946 122.73 45.8743 123.53 46.038C124.329 46.2017 125.058 46.5813 125.717 47.1768C126.137 47.5568 126.475 47.9691 126.73 48.4138C126.985 48.8585 127.15 49.323 127.226 49.8072C127.305 50.289 127.286 50.7769 127.17 51.2708C127.059 51.7646 126.842 52.2472 126.518 52.7189Z" fill="#0C0F15"/>
<path d="M131.956 62.898C131.062 63.5349 130.178 63.913 129.302 64.0324C128.431 64.1526 127.622 64.0455 126.875 63.7111C126.13 63.3795 125.499 62.8507 124.981 62.1247C124.464 61.3987 124.169 60.6281 124.096 59.8127C124.028 58.9982 124.192 58.1975 124.588 57.4107C124.988 56.6247 125.634 55.9142 126.524 55.2793C127.417 54.6425 128.3 54.264 129.17 54.1438C130.046 54.0244 130.856 54.1305 131.601 54.4621C132.349 54.7965 132.981 55.3266 133.499 56.0526C134.016 56.7786 134.31 57.5479 134.381 58.3606C134.453 59.1759 134.289 59.9766 133.889 60.7626C133.493 61.5494 132.849 62.2612 131.956 62.898ZM130.879 61.388C131.508 60.9398 131.968 60.4632 132.259 59.9583C132.555 59.4543 132.691 58.9506 132.666 58.4474C132.644 57.9423 132.472 57.4644 132.151 57.0137C131.829 56.563 131.433 56.2447 130.963 56.059C130.496 55.8713 129.974 55.8338 129.399 55.9466C128.829 56.0601 128.229 56.341 127.601 56.7893C126.972 57.2376 126.509 57.7138 126.213 58.2178C125.922 58.7227 125.788 59.2277 125.81 59.7328C125.835 60.236 126.008 60.713 126.329 61.1637C126.651 61.6144 127.045 61.9336 127.513 62.1212C127.983 62.307 128.503 62.3431 129.073 62.2296C129.648 62.1168 130.25 61.8363 130.879 61.388Z" fill="#0C0F15"/>
<path d="M137.093 61.711L137.978 63.7876L132.375 69.4597L132.421 69.5695L140.394 69.4593L141.278 71.5358L131.911 75.5259L131.217 73.8975L137.653 71.1563L137.616 71.0694L130.105 71.2101L129.587 69.9934L134.906 64.6692L134.869 64.5823L128.42 67.3294L127.726 65.701L137.093 61.711Z" fill="#0C0F15"/>
<path d="M142.703 78.7068L132.697 80.5898L132.356 78.7771L142.362 76.8941L142.703 78.7068Z" fill="#0C0F15"/>
<path d="M143.325 94.2566L133.148 93.9446L133.198 92.3047L140.277 87.7219L140.28 87.6375L133.347 87.4249L133.404 85.5813L143.581 85.8934L143.53 87.5431L136.446 92.1208L136.444 92.2103L143.381 92.423L143.325 94.2566Z" fill="#0C0F15"/>
<path d="M137.948 103.602C138.228 103.588 138.489 103.536 138.731 103.446C138.975 103.361 139.195 103.239 139.392 103.08C139.589 102.925 139.756 102.731 139.893 102.499C140.033 102.268 140.141 102.004 140.216 101.709C140.349 101.178 140.335 100.672 140.173 100.19C140.011 99.7085 139.702 99.2833 139.244 98.9149C138.789 98.5505 138.192 98.2749 137.453 98.0883C136.708 97.9001 136.047 97.858 135.47 97.9619C134.893 98.0659 134.417 98.2927 134.042 98.6423C133.67 98.9927 133.414 99.4443 133.274 99.997C133.148 100.498 133.135 100.956 133.235 101.372C133.334 101.79 133.536 102.143 133.839 102.432C134.145 102.721 134.538 102.926 135.017 103.047L134.852 103.436L135.528 100.756L136.926 101.109L135.915 105.115L134.729 104.815C133.884 104.602 133.198 104.237 132.672 103.721C132.146 103.206 131.795 102.591 131.62 101.877C131.448 101.163 131.465 100.398 131.671 99.5821C131.901 98.6726 132.307 97.9256 132.889 97.3409C133.473 96.7603 134.191 96.3725 135.044 96.1776C135.899 95.9866 136.847 96.0226 137.888 96.2855C138.685 96.4867 139.368 96.7789 139.938 97.1621C140.507 97.5484 140.959 98.0009 141.293 98.5193C141.63 99.0386 141.843 99.6018 141.933 100.209C142.025 100.817 141.99 101.444 141.827 102.09C141.689 102.636 141.48 103.125 141.2 103.557C140.923 103.99 140.592 104.352 140.208 104.645C139.822 104.94 139.398 105.156 138.936 105.293C138.475 105.429 137.992 105.473 137.488 105.424L137.948 103.602Z" fill="#0C0F15"/>
<path d="M127.71 122.714C128.077 122.951 128.463 123.012 128.867 122.897C129.27 122.783 129.644 122.514 129.988 122.089C130.23 121.791 130.392 121.498 130.475 121.211C130.558 120.924 130.568 120.662 130.506 120.423C130.443 120.185 130.313 119.984 130.117 119.821C129.952 119.687 129.779 119.609 129.597 119.585C129.414 119.565 129.226 119.586 129.035 119.648C128.846 119.713 128.659 119.802 128.473 119.916C128.287 120.03 128.109 120.152 127.939 120.283L127.153 120.875C126.841 121.117 126.515 121.328 126.173 121.508C125.829 121.69 125.478 121.818 125.121 121.891C124.761 121.966 124.402 121.965 124.042 121.887C123.683 121.81 123.332 121.632 122.99 121.355C122.526 120.979 122.214 120.53 122.053 120.008C121.894 119.487 121.897 118.922 122.062 118.313C122.227 117.709 122.566 117.09 123.079 116.457C123.577 115.841 124.106 115.384 124.663 115.085C125.219 114.788 125.783 114.661 126.355 114.702C126.925 114.746 127.481 114.97 128.024 115.375L126.882 116.785C126.589 116.583 126.291 116.482 125.987 116.483C125.684 116.485 125.39 116.568 125.105 116.735C124.819 116.904 124.555 117.138 124.313 117.437C124.061 117.749 123.886 118.059 123.789 118.369C123.692 118.683 123.674 118.975 123.733 119.244C123.794 119.516 123.937 119.745 124.162 119.931C124.37 120.095 124.589 120.172 124.819 120.162C125.051 120.154 125.299 120.08 125.563 119.939C125.826 119.803 126.109 119.622 126.41 119.397L127.371 118.685C128.066 118.169 128.737 117.859 129.384 117.756C130.031 117.657 130.638 117.837 131.205 118.296C131.671 118.673 131.977 119.13 132.123 119.666C132.267 120.205 132.258 120.771 132.096 121.366C131.938 121.962 131.634 122.537 131.186 123.091C130.731 123.653 130.235 124.065 129.697 124.329C129.159 124.598 128.62 124.714 128.079 124.676C127.54 124.641 127.045 124.447 126.593 124.094L127.71 122.714Z" fill="#0C0F15"/>
<path d="M115.54 130.522C114.856 129.665 114.43 128.802 114.264 127.935C114.096 127.071 114.159 126.258 114.453 125.494C114.744 124.732 115.238 124.072 115.934 123.516C116.631 122.96 117.385 122.624 118.195 122.508C119.005 122.396 119.813 122.516 120.62 122.868C121.427 123.226 122.171 123.832 122.853 124.687C123.538 125.544 123.963 126.404 124.13 127.267C124.297 128.135 124.235 128.95 123.944 129.712C123.651 130.476 123.156 131.136 122.459 131.693C121.762 132.249 121.01 132.584 120.202 132.698C119.392 132.815 118.583 132.695 117.777 132.337C116.97 131.985 116.224 131.38 115.54 130.522ZM116.989 129.366C117.471 129.969 117.972 130.403 118.492 130.667C119.011 130.935 119.521 131.043 120.022 130.991C120.526 130.941 120.993 130.744 121.426 130.399C121.859 130.053 122.155 129.641 122.315 129.161C122.477 128.684 122.486 128.162 122.343 127.594C122.198 127.03 121.886 126.447 121.404 125.843C120.922 125.24 120.422 124.804 119.902 124.535C119.382 124.272 118.871 124.165 118.368 124.214C117.867 124.267 117.4 124.465 116.967 124.81C116.534 125.156 116.237 125.567 116.075 126.044C115.915 126.524 115.907 127.045 116.051 127.608C116.195 128.176 116.508 128.762 116.989 129.366Z" fill="#0C0F15"/>
<path d="M105.766 135.436C105.283 134.451 105.052 133.517 105.076 132.634C105.099 131.755 105.335 130.974 105.786 130.291C106.234 129.609 106.858 129.072 107.658 128.679C108.458 128.285 109.266 128.119 110.083 128.179C110.897 128.244 111.661 128.535 112.373 129.053C113.084 129.575 113.681 130.327 114.163 131.309C114.647 132.293 114.878 133.225 114.856 134.104C114.832 134.987 114.596 135.77 114.148 136.451C113.698 137.135 113.072 137.673 112.272 138.066C111.472 138.459 110.665 138.625 109.852 138.563C109.035 138.503 108.272 138.212 107.561 137.689C106.849 137.172 106.25 136.421 105.766 135.436ZM107.431 134.618C107.771 135.311 108.167 135.842 108.618 136.211C109.068 136.585 109.543 136.8 110.044 136.857C110.546 136.917 111.045 136.825 111.542 136.58C112.038 136.336 112.417 135.997 112.676 135.563C112.937 135.132 113.058 134.624 113.04 134.038C113.02 133.457 112.84 132.82 112.499 132.127C112.159 131.434 111.763 130.9 111.314 130.527C110.863 130.157 110.386 129.943 109.884 129.883C109.384 129.826 108.885 129.92 108.388 130.164C107.891 130.408 107.513 130.746 107.252 131.177C106.992 131.611 106.873 132.119 106.892 132.7C106.911 133.286 107.09 133.925 107.431 134.618Z" fill="#0C0F15"/>
<path d="M96.858 142.963L94.4361 133.073L96.0296 132.683L102.339 138.278L102.421 138.258L100.772 131.521L102.563 131.083L104.985 140.972L103.382 141.365L97.0759 135.764L96.989 135.785L98.6399 142.526L96.858 142.963Z" fill="#0C0F15"/>
<path d="M78.6895 134.229C79.0831 134.306 79.4238 134.472 79.7115 134.727C79.9986 134.986 80.2079 135.297 80.3395 135.661C80.4678 136.024 80.4934 136.402 80.4165 136.795C80.3389 137.192 80.1726 137.533 79.9177 137.817C79.6589 138.104 79.3481 138.312 78.9853 138.44C78.6219 138.572 78.2433 138.599 77.8498 138.522C77.4529 138.445 77.1126 138.277 76.8287 138.019C76.541 137.763 76.333 137.454 76.2047 137.091C76.0725 136.731 76.0452 136.352 76.1228 135.956C76.1998 135.562 76.3677 135.222 76.6265 134.935C76.882 134.647 77.1915 134.437 77.5549 134.306C77.9145 134.177 78.2927 134.151 78.6895 134.229Z" fill="#0C0F15"/>
<path d="M98.7275 77.0294L98.7231 77.0367L98.6255 77.1984L98.6211 77.2056L98.6163 77.2124L84.9704 96.7221L96.6276 94.6353C96.6276 94.6353 96.6276 94.6353 96.6276 94.6353C97.5185 94.4757 98.3701 95.0686 98.5297 95.9595C98.6748 96.7696 98.1979 97.5469 97.4404 97.8015L97.4317 97.8044L97.4227 97.8067L97.2234 97.8577L97.2145 97.86L97.2055 97.8616L81.6435 100.649C81.5264 100.67 81.4097 100.678 81.295 100.674L81.2878 100.674L81.2878 100.674C81.2603 100.672 81.2285 100.67 81.1958 100.667C81.162 100.664 81.1302 100.66 81.1016 100.656L81.0971 100.655L81.0971 100.655C81.058 100.648 81.0162 100.64 80.9735 100.63C80.9375 100.622 80.9044 100.612 80.8733 100.603L80.8704 100.602L80.8704 100.602C80.8338 100.59 80.7945 100.577 80.7547 100.561M98.7275 77.0294L80.4149 100.378C80.4319 100.39 80.4491 100.402 80.4624 100.411L80.4624 100.411L80.4669 100.414C80.4948 100.432 80.5241 100.449 80.5553 100.466C80.5937 100.488 80.6321 100.507 80.6692 100.525L80.6714 100.526C80.6973 100.538 80.7248 100.549 80.7547 100.561M98.7275 77.0294L98.7313 77.0219M98.7275 77.0294L98.7313 77.0219M80.7547 100.561C80.7553 100.561 80.7559 100.561 80.7565 100.562L80.8449 100.328L80.7531 100.56C80.7536 100.56 80.7541 100.561 80.7547 100.561ZM98.7313 77.0219C99.101 76.304 98.8927 75.4058 98.2126 74.9302C97.4709 74.4115 96.4491 74.5922 95.9304 75.3339L82.2865 94.8407M98.7313 77.0219L82.2865 94.8407M82.2865 94.8407L80.2469 83.1789L80.2453 83.1699L80.243 83.161L80.1929 82.9614L80.1906 82.9525L80.1877 82.9437C79.9363 82.1852 79.1611 81.705 78.3504 81.8467C77.4588 82.0025 76.8623 82.8516 77.0181 83.7432L79.7375 99.3028L79.7376 99.3051L79.7403 99.3207C79.753 99.3921 79.7703 99.4626 79.7922 99.5318L79.7929 99.534L79.7992 99.553L79.7995 99.554C79.8091 99.5828 79.8194 99.6114 79.8302 99.6385L80.0626 99.5464M82.2865 94.8407L80.0368 99.4752C80.0449 99.4997 80.0537 99.5239 80.0626 99.5464M80.0626 99.5464C80.0752 99.5783 80.089 99.6097 80.1043 99.6416C80.1137 99.6611 80.1236 99.6804 80.1334 99.6982M80.0626 99.5464L79.8301 99.6382C79.8449 99.6759 79.8611 99.7128 79.879 99.7499L79.8793 99.7505C79.8902 99.7731 79.9018 99.7957 79.9136 99.8174M80.1334 99.6982L79.9136 99.8174M80.1334 99.6982C80.1541 99.7364 80.1766 99.7736 80.2015 99.8109M80.1334 99.6982L80.2015 99.8109M79.9136 99.8174C79.9381 99.8625 79.9646 99.9064 79.9938 99.95L79.9941 99.9505C80.0087 99.9722 80.024 99.9938 80.0392 100.014L80.2392 99.8641M79.9136 99.8174L80.2392 99.8641M80.2392 99.8641C80.264 99.8974 80.2905 99.9299 80.3191 99.9619C80.333 99.9774 80.3473 99.9926 80.3615 100.007M80.2392 99.8641L80.0386 100.013C80.068 100.053 80.0992 100.091 80.1326 100.128L80.1329 100.129C80.149 100.147 80.1658 100.165 80.183 100.182M80.2392 99.8641C80.2268 99.8475 80.214 99.8294 80.2015 99.8109M80.2392 99.8641L80.2015 99.8109M80.3615 100.007L80.183 100.182M80.3615 100.007C80.3884 100.034 80.4165 100.061 80.446 100.086L80.3615 100.007ZM80.183 100.182C80.2164 100.216 80.2515 100.249 80.2883 100.28M80.183 100.182L80.2883 100.28M80.2883 100.28L80.2882 100.28C80.3126 100.301 80.3377 100.322 80.3633 100.341L80.3632 100.341L80.3685 100.345L80.3812 100.354C80.3914 100.362 80.4018 100.369 80.4122 100.376L80.2883 100.28Z" fill="#0C0F15" stroke="#0C0F15" stroke-width="0.5"/>
</svg>
